<svg xmlns="http://www.w3.org/2000/svg" width="21.759" height="19.314" viewBox="0 0 21.759 19.314"><defs><style>.a{fill:#a4a4a4;}</style></defs><g transform="translate(-0.5 467.906)"><path class="a" d="M.81-467.819c-.256.173-.31.293-.31.652,0,.264.017.347.087.438.161.219.272.264,1.185.466.5.107.9.206.912.215s.2.854.417,1.874c.743,3.471,2.332,10.567,2.4,10.724a.754.754,0,0,0,.215.268l.14.111,6.811.012c7.628.008,6.984.037,7.2-.293a.626.626,0,0,0,.111-.442.626.626,0,0,0-.111-.442.8.8,0,0,0-.268-.244c-.153-.074-.355-.078-6.481-.091-5.956-.008-6.324-.012-6.344-.083-.012-.037-.078-.33-.149-.648s-.136-.611-.149-.652c-.021-.066.322-.07,6.8-.07,6.567,0,6.831,0,6.968-.078.322-.169.293-.07,1.2-4.173.912-4.14.908-4.1.689-4.388s.532-.264-9-.293c-4.747-.017-8.631-.033-8.639-.037s-.1-.45-.215-.987a11.017,11.017,0,0,0-.268-1.1c-.14-.268-.264-.318-1.469-.582C1.284-467.938,1.02-467.963.81-467.819Z"/><path class="a" d="M166.625-96.239a1.981,1.981,0,0,0-1.639,1.354,2.284,2.284,0,0,0,0,1.247,1.936,1.936,0,0,0,1.9,1.358,1.922,1.922,0,0,0,1.981-1.981A1.959,1.959,0,0,0,166.625-96.239Z" transform="translate(-157.614 -356.311)"/><path class="a" d="M334.713-96.259A1.944,1.944,0,0,0,333-94.282a1.922,1.922,0,0,0,1.981,1.981,1.909,1.909,0,0,0,1.812-1.156,1.35,1.35,0,0,0,.161-.743,1.658,1.658,0,0,0-.07-.693A1.986,1.986,0,0,0,334.713-96.259Z" transform="translate(-318.775 -356.291)"/></g></svg>