<svg xmlns="http://www.w3.org/2000/svg" width="19.512" height="19.519" viewBox="0 0 19.512 19.519"><defs><style>.a{fill:#a4a4a4;}</style></defs><g transform="translate(-580.364 0.105) rotate(90)"><path class="a" d="M8.46-599.828a9.74,9.74,0,0,0-4.916,2.064,11.717,11.717,0,0,0-1.53,1.53,9.7,9.7,0,0,0-2.064,4.948,11.217,11.217,0,0,0,.111,3.027,9.771,9.771,0,0,0,7.455,7.7,7.6,7.6,0,0,0,2.116.2,7.629,7.629,0,0,0,2.064-.186,9.806,9.806,0,0,0,7.035-5.9,10.062,10.062,0,0,0,.625-2.328,8.663,8.663,0,0,0,.059-1.367,7.605,7.605,0,0,0-.2-2.116,9.767,9.767,0,0,0-6.179-7.035,10.394,10.394,0,0,0-2.282-.534A14.212,14.212,0,0,0,8.46-599.828Zm1.81,1.673a1.479,1.479,0,0,1,.791,1.016,1.488,1.488,0,0,1-.26,1.035,1.3,1.3,0,0,1-1.37.553,1.4,1.4,0,0,1-.762-.4,1.318,1.318,0,0,1-.407-1.182,1.364,1.364,0,0,1,.973-1.087,1.272,1.272,0,0,1,.5-.052A.94.94,0,0,1,10.27-598.155Zm-.264,6.657a1.481,1.481,0,0,1,1.058,1.178.757.757,0,0,1-.013.427,1.533,1.533,0,0,1-1.195,1.182.77.77,0,0,1-.42-.016,1.577,1.577,0,0,1-.765-.427,1.379,1.379,0,0,1-.41-.775,1.412,1.412,0,0,1,1.074-1.559A1.178,1.178,0,0,1,10.006-591.5Zm.192,6.862a1.416,1.416,0,0,1,.866,1.468,1.7,1.7,0,0,1-.723,1.038,1.378,1.378,0,0,1-1.54-.1,1.514,1.514,0,0,1-.537-1.39,1.365,1.365,0,0,1,.365-.684A1.306,1.306,0,0,1,10.2-584.635Z"/></g></svg>