<svg xmlns="http://www.w3.org/2000/svg" width="22.797" height="24" viewBox="0 0 22.797 24"><defs><style>.a{fill:#a4a4a4;}</style></defs><g transform="translate(-0.398 569.751)"><path class="a" d="M253.4-569.7a.714.714,0,0,0-.354.375,16.629,16.629,0,0,0-.046,1.837c0,1.719,0,1.719.1,1.862a.791.791,0,0,0,.868.333.85.85,0,0,0,.505-.413,13.834,13.834,0,0,0,.038-1.87c-.013-1.7-.017-1.757-.1-1.87a.641.641,0,0,0-.6-.3A.973.973,0,0,0,253.4-569.7Z" transform="translate(-241.962 0)"/><path class="a" d="M112.283-529.626a.9.9,0,0,0-.434.4.924.924,0,0,0,.008.7c.139.265,1.588,2.591,1.681,2.688a.737.737,0,0,0,1.066.038.786.786,0,0,0,.223-.855c-.025-.063-.417-.712-.872-1.441a7.383,7.383,0,0,0-.981-1.424A.949.949,0,0,0,112.283-529.626Z" transform="translate(-106.696 -38.408)"/><path class="a" d="M359-528.825a.734.734,0,0,0-.219.16c-.055.055-.476.708-.939,1.445-.821,1.314-.842,1.352-.842,1.571a.676.676,0,0,0,.27.59.747.747,0,0,0,1.061-.042c.131-.143,1.664-2.6,1.736-2.78a.8.8,0,0,0-.383-.931A1,1,0,0,0,359-528.825Z" transform="translate(-341.581 -39.15)"/><path class="a" d="M71.588-412.869c-4.819,1.63-6.293,2.131-6.306,2.148s.358.152,4.76,1.643l3.9,1.323,3.783-1.281c4.368-1.479,4.9-1.664,4.882-1.685-.034-.038-8.45-2.885-8.581-2.907A15.371,15.371,0,0,0,71.588-412.869Z" transform="translate(-62.151 -149.546)"/><path class="a" d="M1.4-317.5c-.539.826-.986,1.521-1,1.55s1.3.564,3.943,1.6c2.178.855,3.981,1.546,4,1.538.063-.021,2.452-3.29,2.435-3.332S2.483-319,2.4-319C2.382-319,1.931-318.326,1.4-317.5Z" transform="translate(0 -240.188)"/><path class="a" d="M299.456-317.493c-2.279.771-4.153,1.42-4.158,1.441-.017.042,2.372,3.311,2.435,3.332s7.957-3.088,7.94-3.138c-.055-.143-1.984-3.046-2.022-3.041S301.739-318.268,299.456-317.493Z" transform="translate(-282.478 -240.284)"/><path class="a" d="M59.49-211.93a16.339,16.339,0,0,1-1.2,1.546.618.618,0,0,1-.27.076c-.084,0-1.281-.447-3.041-1.137-1.592-.628-2.915-1.137-2.936-1.137S52-211.547,52-210.148v2.435l.093.185a.968.968,0,0,0,.211.27c.1.072,8.252,2.856,8.281,2.831,0-.008,0-2.026,0-4.495l-.013-4.478Z" transform="translate(-49.428 -341.34)"/><path class="a" d="M286-208.514c0,2.578.017,4.486.038,4.486.042,0,7.586-2.548,7.97-2.692a.882.882,0,0,0,.539-.505c.059-.177.067-4.975.008-4.975-.021,0-1.344.51-2.936,1.137-1.748.687-2.957,1.137-3.041,1.137a.618.618,0,0,1-.27-.076,15.453,15.453,0,0,1-1.2-1.538c-.59-.8-1.078-1.462-1.091-1.462S286-210.982,286-208.514Z" transform="translate(-273.572 -341.723)"/></g></svg>