<svg xmlns="http://www.w3.org/2000/svg" width="18.003" height="17.776" viewBox="0 0 18.003 17.776"><defs><style>.a{fill:#040f4f;}</style></defs><g transform="translate(-0.007 505.914)"><path class="a" d="M6.419-505.846a7.193,7.193,0,0,0-2.214.7,7,7,0,0,0-2.059,1.5,7.388,7.388,0,0,0-2.073,4.174,9.394,9.394,0,0,0-.014,2.108,7.6,7.6,0,0,0,5.32,6.233,7.58,7.58,0,0,0,6.591-1.1l.316-.228.386.38c.214.211.994.963,1.739,1.676s1.546,1.483,1.781,1.711c.471.46.629.552.921.555a.828.828,0,0,0,.615-.218.851.851,0,0,0,.2-.984,29.789,29.789,0,0,0-2.252-2.245l-2.171-2.084.183-.249a7.646,7.646,0,0,0,1.374-3.373,9.5,9.5,0,0,0,0-2.143,7.521,7.521,0,0,0-2.041-4.157,7.492,7.492,0,0,0-4.462-2.273A9.952,9.952,0,0,0,6.419-505.846Zm2.1,1.722a5.888,5.888,0,0,1,4.775,4.684,4.778,4.778,0,0,1,.077,1.131,4.234,4.234,0,0,1-.081,1.107,5.978,5.978,0,0,1-1.24,2.583,1.367,1.367,0,0,1-.264.256,1.015,1.015,0,0,0-.218.232,5.533,5.533,0,0,1-2.207,1.353,4.738,4.738,0,0,1-1.82.263,4.261,4.261,0,0,1-1.072-.081,5.937,5.937,0,0,1-4.645-4.617,4.31,4.31,0,0,1-.077-1.167,4.55,4.55,0,0,1,.077-1.16,5.938,5.938,0,0,1,2.948-3.96,6.289,6.289,0,0,1,1.964-.657A7.974,7.974,0,0,1,8.52-504.125Z"/><path class="a" d="M202.591-430.765a.44.44,0,0,0-.081.678c.091.1.112.109.464.137a4.188,4.188,0,0,1,2.122.71,5.173,5.173,0,0,1,.966.938,4.062,4.062,0,0,1,.773,2.14c0,.467.144.671.46.671a.315.315,0,0,0,.3-.119l.119-.119v-.365a4.732,4.732,0,0,0-1.409-3.292,4.866,4.866,0,0,0-3.211-1.427C202.742-430.836,202.7-430.832,202.591-430.765Z" transform="translate(-195.268 -72.449)"/></g></svg>