<svg xmlns="http://www.w3.org/2000/svg" width="18.696" height="18.873" viewBox="0 0 18.696 18.873"><defs><style>.a{fill:#a4a4a4;}</style></defs><g transform="translate(0 517.619)"><path class="a" d="M1.3-517.593a1.564,1.564,0,0,0-1.231,1.066c-.062.2-.066.548-.066,7.343v7.128l.1.2a.667.667,0,0,0,.278.307l.179.11.96.018.96.018.226.31a6.263,6.263,0,0,0,1.921,1.665,5.888,5.888,0,0,0,4.809.31,5.881,5.881,0,0,0,2.72-2.129l.117-.175,2.932-.007,2.932-.011.175-.11a.694.694,0,0,0,.281-.307l.1-.194v-6.259c0-5.579-.007-6.277-.058-6.4a.857.857,0,0,0-.361-.4c-.1-.059-.756-.062-8.278-.08L1.829-515.2l-.1-.077a.524.524,0,0,1,0-.906l.1-.077,7.131-.018,7.131-.018.128-.1a.7.7,0,0,0,.058-1.037c-.208-.19.263-.179-7.515-.183C4.776-517.622,1.417-517.611,1.3-517.593Zm16.158,6.3v1.446l-2.33-.011-2.326-.011-.245-.12a1.6,1.6,0,0,1-.727-.763,1.659,1.659,0,0,1-.018-1.022,1.537,1.537,0,0,1,.917-.887,11.39,11.39,0,0,1,2.476-.069l2.253,0Zm-9.3,2.154a4.708,4.708,0,0,1,3.651,3.122,4,4,0,0,1,.223,1.479,3.879,3.879,0,0,1-.234,1.493,4.754,4.754,0,0,1-2.958,2.943,4.753,4.753,0,0,1-3.261-.131,4.718,4.718,0,0,1-2.786-3.418,5.9,5.9,0,0,1,0-1.775,4.74,4.74,0,0,1,2.1-3.053,4.753,4.753,0,0,1,1.683-.657A6.058,6.058,0,0,1,8.154-509.143Z" transform="translate(0)"/><path class="a" d="M347.587-361.8a.642.642,0,0,0,.245,1.227.6.6,0,0,0,.654-.639.573.573,0,0,0-.245-.515A.74.74,0,0,0,347.587-361.8Z" transform="translate(-334.533 -150.083)"/><path class="a" d="M147-258.565v.431l.7.022a2.193,2.193,0,0,1,1.347.281,1.214,1.214,0,0,1,.394.482c0,.015-.551.029-1.223.029H147v.73l1.256.007,1.256.011-.069.186a1.4,1.4,0,0,1-1.022.8,5.836,5.836,0,0,1-.825.08l-.6.022v.822l.314.343c.471.508,1.2,1.351,1.855,2.118l.573.686h.6c.548,0,.6-.007.6-.066a34.648,34.648,0,0,0-2.293-2.735l-.34-.372.139-.022a3.011,3.011,0,0,0,1.249-.42,2.043,2.043,0,0,0,.887-1.245l.044-.212.529-.011.533-.011v-.694l-.533-.011-.537-.011-.044-.172a2.029,2.029,0,0,0-.332-.672l-.11-.139.778-.007.778-.011.011-.34.011-.336H147Z" transform="translate(-141.632 -249.176)"/></g></svg>